<svg width="45" height="45" viewBox="0 0 45 45" fill="none" xmlns="http://www.w3.org/2000/svg">
<g clip-path="url(#clip0_736_4505)">
<path d="M16.0485 32.0979C15.6475 34.0689 15.3872 35.0219 13.8658 35.1439C13.491 35.1741 13.1856 35.457 13.1272 35.8285C13.0686 36.1999 13.2722 36.5631 13.6197 36.707C13.7175 36.7474 16.0444 37.6982 18.763 37.6983C18.7634 37.6983 18.7637 37.6983 18.764 37.6983C20.6585 37.6983 22.2837 37.2391 23.5942 36.3335C25.1472 35.2603 26.2179 33.5809 26.7871 31.3438L21.5555 26.0703C17.1342 26.7859 16.5079 29.8393 16.0485 32.0979Z" fill="#27104E"/>
<path d="M43.8371 8.93808C43.6965 8.79621 43.4455 8.62708 43.0496 8.62708C42.5853 8.62708 41.352 8.62708 33.8618 15.0008C30.4019 17.9448 26.4128 21.587 23.2397 24.6864L28.2044 29.6905C31.4678 26.2984 35.2748 22.0468 38.3024 18.3979C40.2143 16.094 41.6845 14.1929 42.672 12.7478C43.9801 10.8336 44.553 9.65952 43.8371 8.93808Z" fill="#27104E"/>
<path d="M24.8281 38.1188C23.148 39.2798 21.1078 39.8683 18.7631 39.8683C15.677 39.8682 13.0774 38.8308 12.7889 38.7118C11.5106 38.182 10.7683 36.8572 10.9837 35.4906C11.1946 34.1517 12.2672 33.1342 13.607 32.9887C13.7237 32.64 13.8529 32.0048 13.922 31.6652C14.1767 30.4133 14.5255 28.6984 15.5982 27.1722C16.7697 25.5056 18.5355 24.4371 20.8541 23.9894C22.1848 22.6687 23.7031 21.2166 25.2875 19.7429C24.4865 19.5692 23.7704 19.0475 23.3863 18.2586C22.7251 16.8995 23.3018 15.2647 24.6726 14.6107C26.047 13.955 27.6955 14.5277 28.3558 15.8888C28.4861 16.1571 28.5667 16.4358 28.6043 16.7156C29.9183 15.5387 31.2232 14.3964 32.4552 13.3481C32.4625 13.3418 32.4694 13.3359 32.4769 13.3296C31.0922 10.6799 29.1065 8.3322 26.6871 6.53465C23.2129 3.9534 19.0761 2.58824 14.7242 2.58716C14.7228 2.58716 14.7219 2.58716 14.7208 2.58716C11.7838 2.58716 8.21361 3.61336 5.40314 5.26579C1.95831 7.29108 0.0613337 9.99968 0.0620119 12.8923C0.063097 16.3846 2.03277 17.8454 3.61548 19.0191C4.90604 19.9762 5.92533 20.7321 5.92587 22.3888C5.92628 24.0453 4.90753 24.8005 3.61765 25.7567C2.03548 26.9296 0.0662166 28.3896 0.0673016 31.8823C0.0681154 34.7746 1.96631 37.4839 5.41209 39.5109C8.22459 41.1654 11.7966 42.1937 14.7342 42.1946C14.7362 42.1946 14.738 42.1946 14.7399 42.1946C20.071 42.1946 25.0825 40.1369 28.8518 36.4003C31.678 33.5988 33.5523 30.1047 34.3142 26.3034C32.4218 28.4018 30.5168 30.4393 28.8125 32.1793C28.0895 34.7938 26.7511 36.79 24.8281 38.1188ZM15.1247 10.8053C15.4635 9.33087 16.9422 8.41046 18.4279 8.74819C19.9116 9.08429 20.8413 10.5497 20.5049 12.0221C20.1659 13.4929 18.6864 14.4135 17.2006 14.0775C15.7157 13.7433 14.7856 12.2762 15.1247 10.8053ZM6.17286 15.8304C5.22274 14.6483 5.41806 12.9277 6.60906 11.9867C7.79992 11.0475 9.53482 11.2401 10.4867 12.4201C11.4348 13.6005 11.2388 15.321 10.0487 16.2639C8.86044 17.2052 7.12284 17.0106 6.17286 15.8304ZM7.62306 33.8719C6.43138 32.9301 6.23539 31.2096 7.1855 30.0278C8.13494 28.8483 9.87051 28.6549 11.0621 29.5965C12.2526 30.5382 12.4488 32.2588 11.4995 33.4386C10.5502 34.6204 8.81446 34.8136 7.62306 33.8719Z" fill="#27104E"/>
</g>
<defs>
<clipPath id="clip0_736_4505">
<rect width="44.0864" height="44.0864" fill="white" transform="translate(0.0620117 0.347534)"/>
</clipPath>
</defs>
</svg>
