<svg width="29" height="29" viewBox="0 0 29 29" fill="none" xmlns="http://www.w3.org/2000/svg">
<path d="M8.42965 8.54071C8.75916 5.24563 11.5319 2.73633 14.8434 2.73633C18.1549 2.73633 20.9277 5.24563 21.2572 8.54071L21.5916 11.8845C21.6448 12.4163 21.6713 12.6822 21.7148 12.9422C21.8719 13.8825 22.1958 14.7871 22.6712 15.6134C22.8027 15.842 22.9509 16.0643 23.2474 16.5089L24.4372 18.2936C25.3497 19.6623 25.8059 20.3467 25.5233 20.8749C25.2406 21.403 24.4181 21.403 22.7731 21.403H6.9138C5.26877 21.403 4.44625 21.403 4.1636 20.8749C3.88095 20.3467 4.3372 19.6623 5.24969 18.2936L6.43947 16.5089C6.7359 16.0643 6.88412 15.842 7.01562 15.6134C7.49103 14.7871 7.81494 13.8825 7.97205 12.9422C8.01551 12.6822 8.0421 12.4163 8.09527 11.8845L8.42965 8.54071Z" fill="#B8B8B8"/>
<path d="M12.5896 24.471C12.7225 24.595 13.0155 24.7046 13.423 24.7828C13.8305 24.8609 14.3298 24.9033 14.8434 24.9033C15.3571 24.9033 15.8564 24.8609 16.2639 24.7828C16.6714 24.7046 16.9643 24.595 17.0973 24.471" stroke="#B8B8B8" stroke-width="2" stroke-linecap="round"/>
</svg>
