<svg width="49" height="47" viewBox="0 0 49 47" fill="none" xmlns="http://www.w3.org/2000/svg">
<path d="M10.9777 11.8321C12.7164 11.8321 14.1249 10.3021 14.1249 8.41636C14.1249 6.52869 12.7164 4.99988 10.9777 4.99988C9.23855 4.99988 7.83008 6.52869 7.83008 8.41636C7.83 10.3021 9.23855 11.8321 10.9777 11.8321Z" fill="#27104E"/>
<path d="M24.4318 20.8877V20.8928C24.4395 20.8928 24.4465 20.8902 24.4541 20.8902C24.4618 20.8902 24.4689 20.8928 24.4765 20.8928V20.8877C25.659 20.8615 26.6104 19.8174 26.6104 18.5287C26.6104 17.2381 25.659 16.1947 24.4765 16.1685V16.1633C24.4688 16.1633 24.4617 16.1659 24.4541 16.1659C24.4465 16.1659 24.4395 16.1633 24.4318 16.1633V16.1685C23.2492 16.1947 22.2979 17.2381 22.2979 18.5287C22.2978 19.8174 23.2492 20.8615 24.4318 20.8877Z" fill="#27104E"/>
<path d="M37.9304 11.8321C39.6696 11.8321 41.0781 10.3021 41.0781 8.41636C41.0781 6.52869 39.6696 4.99988 37.9304 4.99988C36.1918 4.99988 34.7832 6.52869 34.7832 8.41636C34.7833 10.3021 36.1918 11.8321 37.9304 11.8321Z" fill="#27104E"/>
<path d="M40.7227 13.45H37.9633H36.5648C34.961 13.45 33.4924 14.4257 32.7628 15.9756L30.2176 24.0557C30.1299 24.2409 29.967 24.3724 29.7775 24.4089C29.588 24.4453 29.3939 24.3834 29.2521 24.2409L27.6687 22.753C27.1951 22.2772 26.5739 22.013 25.9284 22.013H24.4535H22.9785C22.333 22.013 21.7118 22.2772 21.2382 22.753L19.6549 24.2409C19.5131 24.3834 19.319 24.4453 19.1295 24.4089C18.9401 24.3724 18.7771 24.2409 18.6895 24.0557L16.1442 15.9756C15.4147 14.4257 13.9461 13.45 12.3422 13.45H10.9436H8.18414C6.65917 13.45 5 15.2508 5 16.9067V28.3885C5 29.2161 5.6178 29.8872 6.38028 29.8872C6.7556 29.8872 6.38028 29.8872 7.34399 29.8872L7.86878 39.6794C7.86878 40.5599 8.52715 41.2739 9.33842 41.2739C9.68084 41.2739 10.3122 41.2739 10.9435 41.2739C11.5748 41.2739 12.2061 41.2739 12.5485 41.2739C13.3598 41.2739 14.0182 40.5599 14.0182 39.6794L14.543 29.8872L14.5365 22.8959C14.5365 22.7855 14.606 22.6903 14.7054 22.6635C14.8048 22.6379 14.9066 22.689 14.9531 22.7874L16.9723 28.1815C17.2159 28.6975 17.6678 29.0602 18.1938 29.1617C18.7198 29.2633 19.2593 29.0921 19.6517 28.6988L21.5838 27.1541C21.6486 27.0896 21.7421 27.0729 21.8221 27.1094C21.9028 27.1484 21.9546 27.2346 21.9546 27.329L21.9617 33.3918L22.3247 40.1704C22.3247 40.7797 22.7807 41.2739 23.3426 41.2739C23.5791 41.2739 24.0162 41.2739 24.4534 41.2739C24.8905 41.2739 25.3277 41.2739 25.5642 41.2739C26.1261 41.2739 26.582 40.7797 26.582 40.1704L26.9451 33.3918L26.9522 27.329C26.9522 27.2345 27.0039 27.1484 27.0845 27.1094C27.1645 27.0729 27.2581 27.0896 27.3228 27.1541L29.255 28.6988C29.6474 29.0921 30.187 29.2633 30.713 29.1617C31.239 29.0602 31.6908 28.6975 31.9344 28.1815L33.9537 22.7874C34.0001 22.689 34.1019 22.6379 34.2013 22.6635C34.3008 22.6903 34.3702 22.7854 34.3702 22.8959L34.3637 29.8872L34.8885 39.6794C34.8885 40.5599 35.5469 41.2739 36.3582 41.2739C36.7007 41.2739 37.3319 41.2739 37.9633 41.2739C38.5946 41.2739 39.2259 41.2739 39.5683 41.2739C40.3796 41.2739 41.0381 40.5599 41.0381 39.6794L41.5628 29.8872C42.5265 29.8872 42.1512 29.8872 42.5265 29.8872C43.289 29.8872 43.9068 29.2161 43.9068 28.3885V16.9067C43.9069 15.2508 42.2477 13.45 40.7227 13.45Z" fill="#27104E"/>
</svg>
