<svg width="20" height="18" viewBox="0 0 20 18" fill="none" xmlns="http://www.w3.org/2000/svg">
<path d="M4.84266 12.8015C3.52242 12.8015 2.45215 11.8408 2.45215 10.6557V5.04335C2.45215 3.85821 3.52242 2.89746 4.84266 2.89746H14.7725C16.0927 2.89746 17.163 3.85821 17.163 5.04335V10.6557C17.163 11.8408 16.0927 12.8015 14.7725 12.8015H10.5523L6.86443 15.278C6.4578 15.551 5.88161 15.4764 5.57747 15.1114C5.45857 14.9687 5.39431 14.7953 5.39431 14.6172L5.39374 12.8015H4.84266ZM10.1853 11.8111H14.7725C15.4834 11.8111 16.0597 11.2938 16.0597 10.6557V5.04335C16.0597 4.40519 15.4834 3.88787 14.7725 3.88787H4.84266C4.13176 3.88787 3.55546 4.40519 3.55546 5.04335V10.6557C3.55546 11.2938 4.13176 11.8111 4.84266 11.8111H6.49673L6.49689 12.3062L6.49752 14.2875L10.1853 11.8111Z" fill="white"/>
</svg>
