<svg width="19" height="19" viewBox="0 0 19 19" fill="none" xmlns="http://www.w3.org/2000/svg">
<path d="M3.68935 10.2419L9.18495 15.4563C9.31098 15.5759 9.37399 15.6357 9.44101 15.669C9.58135 15.7389 9.74634 15.7389 9.88668 15.669C9.95369 15.6357 10.0167 15.5759 10.1427 15.4563L15.6383 10.2419C17.1668 8.79164 17.3529 6.4211 16.0693 4.75015L15.8045 4.40539C14.2586 2.39294 11.1314 2.72819 10.0472 5.02257C9.89421 5.3464 9.43348 5.3464 9.28046 5.02257C8.1963 2.72819 5.06904 2.39294 3.52319 4.40539L3.25837 4.75015C1.97483 6.4211 2.16087 8.79164 3.68935 10.2419Z" stroke="#777777" stroke-width="2"/>
</svg>
