<svg width="55" height="37" viewBox="0 0 55 37" fill="none" xmlns="http://www.w3.org/2000/svg">
<g clip-path="url(#clip0_736_4518)">
<path d="M27.938 0.15332C17.8216 0.15332 9.59131 8.38361 9.59131 18.5C9.59131 28.6164 17.8216 36.8466 27.938 36.8466C38.0543 36.8466 46.2846 28.6164 46.2846 18.5C46.2846 8.38361 38.0544 0.15332 27.938 0.15332ZM27.938 35.229C18.7136 35.229 11.209 27.7244 11.209 18.5C11.209 9.27559 18.7136 1.77097 27.938 1.77097C37.1624 1.77097 44.667 9.27559 44.667 18.5C44.667 27.7244 37.1625 35.229 27.938 35.229Z" fill="#27104E"/>
<path d="M18.1587 22.5725C17.6205 21.2816 17.3476 19.9115 17.3476 18.4999C17.3476 12.6602 22.0986 7.90916 27.9384 7.90916C29.969 7.90916 31.9414 8.48526 33.6428 9.57502C34.0187 9.81572 34.519 9.70637 34.7602 9.3301C35.0011 8.95405 34.8915 8.45377 34.5154 8.21284C32.5531 6.95582 30.2788 6.2915 27.9384 6.2915C21.2067 6.2915 15.73 11.7682 15.73 18.4999C15.73 20.1263 16.0448 21.706 16.6657 23.1951C16.7953 23.5057 17.0958 23.6929 17.4126 23.6929C17.5163 23.6929 17.6218 23.6728 17.7235 23.6304C18.1358 23.4585 18.3307 22.9848 18.1587 22.5725Z" fill="#27104E"/>
<path d="M21.1734 26.6489C20.5905 26.1644 20.0583 25.6161 19.5915 25.0194C19.3163 24.6676 18.8079 24.6054 18.4561 24.8806C18.1042 25.1558 18.0421 25.6642 18.3173 26.016C18.8549 26.7034 19.468 27.3348 20.1394 27.8928C20.2905 28.0184 20.4737 28.0796 20.656 28.0796C20.8881 28.0796 21.1185 27.9801 21.2783 27.7877C21.564 27.4443 21.517 26.9344 21.1734 26.6489Z" fill="#27104E"/>
<path d="M36.4294 10.8511C36.0774 11.1261 36.0148 11.6344 36.2898 11.9864C37.7547 13.8618 38.529 16.1141 38.529 18.4998C38.529 24.3395 33.7779 29.0906 27.9382 29.0906C26.528 29.0906 25.159 28.8182 23.8691 28.2808C23.4568 28.109 22.9832 28.3041 22.8114 28.7165C22.6396 29.1288 22.8347 29.6023 23.2471 29.7741C24.7351 30.394 26.3135 30.7082 27.9383 30.7082C34.67 30.7082 40.1467 25.2315 40.1467 18.4998C40.1467 15.7498 39.2539 13.1532 37.5649 10.9906C37.2896 10.6387 36.7813 10.5761 36.4294 10.8511Z" fill="#27104E"/>
<path d="M54.2451 1.9071C53.7984 1.9071 53.4363 2.26924 53.4363 2.71593V9.73104C53.4363 10.4449 53.0226 11.0624 52.4232 11.3611V2.71593C52.4232 2.26924 52.0611 1.9071 51.6144 1.9071C51.1677 1.9071 50.8055 2.26924 50.8055 2.71593V11.3611C50.2063 11.0624 49.7925 10.4449 49.7925 9.73104V2.71593C49.7925 2.26924 49.4303 1.9071 48.9836 1.9071C48.5369 1.9071 48.1748 2.26924 48.1748 2.71593V9.73104C48.1748 11.3489 49.2981 12.7087 50.8055 13.0735V34.284C50.8055 34.7308 51.1677 35.0928 51.6144 35.0928C52.0611 35.0928 52.4232 34.7308 52.4232 34.284V13.0737C53.9306 12.7088 55.0539 11.349 55.0539 9.73104V2.71593C55.0539 2.26924 54.6918 1.9071 54.2451 1.9071Z" fill="#27104E"/>
<path d="M4.26213 1.9071C1.68025 1.9071 -0.0541992 5.95264 -0.0541992 9.73104C-0.0541992 11.8346 1.45874 13.5905 3.4533 13.9704V34.284C3.4533 34.7308 3.81544 35.0928 4.26213 35.0928C4.70882 35.0928 5.07096 34.7308 5.07096 34.284V13.9704C7.06563 13.5905 8.57857 11.8346 8.57857 9.73104C8.57857 5.95264 6.84412 1.9071 4.26213 1.9071ZM4.26213 12.4298C2.7741 12.4298 1.56345 11.2192 1.56345 9.73104C1.56345 6.38865 3.04738 3.52476 4.26213 3.52476C5.47688 3.52476 6.96091 6.38865 6.96091 9.73104C6.96091 11.2192 5.75026 12.4298 4.26213 12.4298Z" fill="#27104E"/>
</g>
<defs>
<clipPath id="clip0_736_4518">
<rect width="55" height="37" fill="white"/>
</clipPath>
</defs>
</svg>
