<svg width="22" height="18" viewBox="0 0 22 18" fill="none" xmlns="http://www.w3.org/2000/svg">
<path d="M4.94858 9.81728L10.3654 14.5791C10.4505 14.6539 10.493 14.6913 10.5359 14.716C10.6906 14.8054 10.8812 14.8054 11.0359 14.716C11.0788 14.6913 11.1214 14.6539 11.2064 14.5791L16.6232 9.81729C18.2653 8.37378 18.4615 5.88607 17.0661 4.20297L16.9633 4.07894C15.3639 2.14994 12.3126 2.48788 11.1741 4.72009C11.0124 5.03713 10.5594 5.03713 10.3977 4.72009C9.25926 2.48788 6.20789 2.14994 4.60857 4.07894L4.50574 4.20297C3.1103 5.88607 3.30652 8.37378 4.94858 9.81728Z" stroke="white"/>
</svg>
