<svg width="40" height="39" viewBox="0 0 40 39" fill="none" xmlns="http://www.w3.org/2000/svg">
<g clip-path="url(#clip0_736_4513)">
<path d="M37.9668 0.677171C37.6366 0.460966 37.2584 0.329202 36.8653 0.293465C36.4723 0.257729 36.0765 0.319114 35.7127 0.472224L25.527 4.83805L15.3375 0.472224C15.3534 0.480967 15.343 0.53744 15.3553 0.553456C15.0615 0.409261 14.7411 0.32759 14.4141 0.313608C14.0872 0.299626 13.761 0.353637 13.456 0.472224L2.32995 5.24119C1.90132 5.42579 1.53615 5.73192 1.27958 6.12175C1.023 6.51159 0.886252 6.96806 0.88623 7.43475L0.88623 36.0485C0.887145 36.6807 1.13866 37.2866 1.58564 37.7336C2.03262 38.1806 2.63859 38.4321 3.27071 38.433C3.59378 38.4318 3.91344 38.367 4.21147 38.2423L14.3972 33.8764L24.5869 38.2423C24.8849 38.367 25.2046 38.4318 25.5276 38.433C25.8537 38.4045 26.1704 38.3091 26.4579 38.1527C26.46 38.1716 26.4684 38.2421 26.4684 38.2421L37.5944 33.4731C38.023 33.2885 38.3881 32.9823 38.6447 32.5925C38.9012 32.2027 39.0379 31.7462 39.0379 31.2796V2.66579C39.0387 2.27141 38.9412 1.88306 38.7542 1.53584C38.5672 1.18863 38.2965 0.893511 37.9668 0.677171ZM5.65519 9.00887L12.0123 6.2844V29.7054L5.65519 32.4299V9.00887ZM16.7812 6.27975L23.1429 9.00887V32.4345L16.7812 29.7054V6.27975ZM34.269 29.7054L27.9119 32.4299V9.00887L34.269 6.2844V29.7054Z" fill="#27104E"/>
</g>
<defs>
<clipPath id="clip0_736_4513">
<rect width="38.1517" height="38.1517" fill="white" transform="translate(0.88623 0.282227)"/>
</clipPath>
</defs>
</svg>
