<svg width="53" height="53" viewBox="0 0 53 53" fill="none" xmlns="http://www.w3.org/2000/svg">
<g clip-path="url(#clip0_816_3271)">
<path d="M44.0806 7.39494C43.7504 7.17874 43.3721 7.04698 42.9791 7.01124C42.586 6.9755 42.1902 7.03689 41.8265 7.19L31.6408 11.5558L21.4513 7.19C21.4672 7.19874 21.4568 7.25521 21.469 7.27123C21.1753 7.12703 20.8548 7.04536 20.5279 7.03138C20.201 7.0174 19.8747 7.07141 19.5698 7.19L8.44372 11.959C8.01509 12.1436 7.64992 12.4497 7.39335 12.8395C7.13677 13.2294 7.00002 13.6858 7 14.1525V42.7663C7.00091 43.3984 7.25243 44.0044 7.69941 44.4514C8.14639 44.8984 8.75236 45.1499 9.38448 45.1508C9.70755 45.1496 10.0272 45.0848 10.3252 44.96L20.511 40.5942L30.7006 44.96C30.9987 45.0848 31.3183 45.1496 31.6414 45.1508C31.9675 45.1223 32.2841 45.0269 32.5717 44.8705C32.5737 44.8894 32.5822 44.9598 32.5822 44.9598L43.7082 40.1909C44.1368 40.0063 44.5019 39.7001 44.7584 39.3103C45.015 38.9205 45.1517 38.464 45.1517 37.9974V9.38356C45.1525 8.98919 45.055 8.60083 44.868 8.25362C44.6809 7.90641 44.4103 7.61128 44.0806 7.39494ZM11.769 15.7266L18.126 13.0022V36.4232L11.769 39.1477V15.7266ZM22.895 12.9975L29.2567 15.7266V39.1523L22.895 36.4232V12.9975ZM40.3828 36.4232L34.0257 39.1477V15.7266L40.3828 13.0022V36.4232Z" fill="#27104E"/>
</g>
<defs>
<clipPath id="clip0_816_3271">
<rect width="38.1517" height="38.1517" fill="white" transform="translate(7 7)"/>
</clipPath>
</defs>
</svg>
