<svg width="38" height="38" viewBox="0 0 38 38" fill="none" xmlns="http://www.w3.org/2000/svg">
<path d="M21.6536 13.8202C21.6536 10.0535 18.6122 7 14.8604 7C13.9964 7 13.168 7.16239 12.4055 7.45918C12.1378 7.56334 11.9408 7.79622 11.8815 8.07818C11.8224 8.36016 11.9091 8.65309 12.112 8.85686L15.3574 12.1153L13.1617 14.3198L9.91646 11.0615C9.71351 10.8577 9.42174 10.7707 9.14085 10.8301C8.85995 10.8896 8.62813 11.0875 8.52437 11.3563C8.22886 12.1216 8.06719 12.9529 8.06719 13.8202C8.06719 17.5868 11.1087 20.6403 14.8604 20.6403C15.5059 20.6403 16.1315 20.5497 16.7247 20.38L25.2272 29.0277C26.4397 30.261 28.3838 30.3762 29.7324 29.2946C31.2848 28.0496 31.434 25.7336 30.0544 24.2981L21.4766 15.3728C21.5924 14.8734 21.6536 14.3535 21.6536 13.8202ZM14.8604 8.70504C17.6742 8.70504 19.9553 10.9952 19.9553 13.8202C19.9553 14.3581 19.8729 14.875 19.7206 15.3599C19.6271 15.6579 19.7034 15.9833 19.9194 16.2081L28.8322 25.4819C29.5172 26.1946 29.4431 27.3443 28.6724 27.9624C28.0029 28.4993 27.0377 28.4422 26.4358 27.8299L17.5636 18.8062C17.3278 18.5664 16.9734 18.4885 16.6594 18.6075C16.1011 18.8191 15.4953 18.9353 14.8604 18.9353C12.0466 18.9353 9.76548 16.6451 9.76548 13.8202C9.76548 13.6592 9.77295 13.5001 9.78739 13.3431L12.5614 16.1282C12.7205 16.2881 12.9365 16.3779 13.1617 16.3779C13.3869 16.3779 13.6029 16.2881 13.7622 16.1282L17.1588 12.7182C17.4904 12.3852 17.4904 11.8455 17.1588 11.5125L14.3843 8.72702C14.5411 8.71247 14.6999 8.70504 14.8604 8.70504Z" fill="white"/>
</svg>
