<svg width="78" height="53" viewBox="0 0 78 53" fill="none" xmlns="http://www.w3.org/2000/svg">
<path d="M25.1472 24.6351C23.9744 23.475 23.1925 22.3149 22.541 21.0258C22.4106 21.9282 22.2803 22.7016 22.2803 23.475V28.3733C22.2803 29.1467 21.7591 29.6623 20.9772 29.6623C20.1953 29.6623 19.6741 29.1467 19.6741 28.3733V27.0843H17.0678C16.286 27.0843 15.7647 26.5687 15.7647 25.7952C15.7647 25.0218 16.286 24.5062 17.0678 24.5062H19.6741V23.2172H17.0678C16.286 23.2172 15.7647 22.7016 15.7647 21.9282C15.7647 21.1548 16.286 20.6391 17.0678 20.6391H19.6741V19.3501H17.0678C16.286 19.3501 15.7647 18.8345 15.7647 18.0611C15.7647 17.2877 16.286 16.7721 17.0678 16.7721H19.6741V15.483H17.0678C16.286 15.483 15.7647 14.9674 15.7647 14.194C15.7647 13.4206 16.286 12.905 17.0678 12.905H19.6741V11.3582C19.6741 6.45985 15.7647 2.59277 10.8129 2.59277H5.33974C4.55787 2.59277 4.03662 3.10838 4.03662 3.8818C4.03662 4.65522 4.55787 5.17083 5.33974 5.17083H5.9913L7.42474 7.36217C8.0763 8.39339 9.37942 9.0379 10.5522 9.0379C11.2038 9.0379 11.8554 9.55352 11.8554 10.3269V28.1155C11.8554 33.9161 16.6769 38.6855 22.541 38.6855C28.1444 38.6855 32.7053 34.1739 32.7053 28.6311C32.7053 28.5022 32.7053 28.2444 32.7053 28.1155C30.0991 28.1155 27.3625 26.8265 25.1472 24.6351Z" fill="#27104E"/>
<path d="M32.8361 25.6663C31.0117 25.6663 28.7964 24.7639 26.9721 22.9593C23.9749 19.9945 23.3233 16.2564 25.4083 14.1939C27.4933 12.1315 31.2724 12.9049 34.2695 15.7408C37.2667 18.7055 37.9183 22.4437 35.8333 24.5061C35.0514 25.2795 34.0089 25.6663 32.8361 25.6663Z" fill="#27104E"/>
<path d="M72.0994 24.2745V23.81C72.0994 20.1909 72.0994 18.3814 70.9177 17.3912C69.7362 16.4011 67.9302 16.6989 64.3181 17.2944L62.5565 17.5848C59.8161 18.0366 58.446 18.2625 57.0634 18.2625C55.6807 18.2625 54.3106 18.0366 51.5702 17.5848L49.8087 17.2944C46.1965 16.6989 44.3905 16.4011 43.2089 17.3912C42.0273 18.3814 42.0273 20.1909 42.0273 23.81V32.5375C42.0273 41.6108 49.1092 46.014 53.5526 47.8835C54.7578 48.3907 55.3605 48.6444 57.0634 48.6444C58.7663 48.6444 59.3689 48.3907 60.5741 47.8835C65.0174 46.014 72.0994 41.6108 72.0994 32.5375V30.8849" stroke="#27104E" stroke-width="2" stroke-linecap="round"/>
<path d="M47.8745 27.5797C48.3609 26.6169 49.6732 25.9271 51.2158 25.9271C52.7585 25.9271 54.0709 26.6169 54.5572 27.5797" stroke="#27104E" stroke-width="2" stroke-linecap="round"/>
<path d="M59.5693 27.5797C60.0557 26.6169 61.368 25.9271 62.9107 25.9271C64.4534 25.9271 65.7657 26.6169 66.252 27.5797" stroke="#27104E" stroke-width="2" stroke-linecap="round"/>
<path d="M51.2158 35.8427C51.2158 35.8427 52.97 37.4952 57.0632 37.4952C61.1563 37.4952 62.9105 35.8427 62.9105 35.8427" stroke="#27104E" stroke-width="2" stroke-linecap="round"/>
</svg>
