<svg width="65" height="44" viewBox="0 0 65 44" fill="none" xmlns="http://www.w3.org/2000/svg">
<path d="M62.1097 14.2427C62.1097 14.2427 59.6577 14.2521 58.3622 15.2697C58.4959 15.6064 58.5996 15.9632 58.6324 16.3507C58.6664 16.5675 58.7055 17.0678 58.6145 17.774C58.8382 17.7498 59.0662 17.738 59.2992 17.738C59.6174 17.738 59.8609 17.7614 59.9658 17.774C60.3521 17.8023 60.727 17.9128 61.0648 18.0443C62.1159 16.7615 62.1097 14.2427 62.1097 14.2427ZM56.6145 14.549C55.7341 14.7052 54.511 15.7896 54.0561 17.0533C54.5657 17.5751 55.1087 18.3118 55.4074 19.2695C55.4788 19.4978 55.5215 19.7323 55.5515 19.9721L57.3892 18.1344C57.3955 18.1009 57.4009 18.0777 57.4071 18.0443C57.6049 17.0665 57.4792 16.4948 57.4792 16.4948C57.421 15.5147 56.6145 14.549 56.6145 14.549ZM52.3625 17.1434C51.7444 17.4738 51.0677 18.4457 50.795 19.5037C51.3836 20.011 52.1947 20.8875 52.5787 22.1162C52.6496 22.3445 52.6928 22.579 52.7228 22.8188L54.3804 21.1613C54.4807 20.6683 54.4697 20.1255 54.3083 19.6118C53.8136 18.028 52.3625 17.1434 52.3625 17.1434ZM59.3351 18.8911C59.0186 18.8896 58.5922 18.9231 58.146 19.0352L56.4343 20.7469C56.5416 20.7659 56.6374 20.7721 56.7406 20.8009C57.7294 21.0483 58.6896 21.674 59.3711 22.3324C60.6078 21.8596 61.6518 20.6579 61.8034 19.792C61.8034 19.792 60.8377 18.9848 59.8576 18.9271C59.8576 18.9271 59.6516 18.8926 59.3351 18.8911ZM49.5157 19.9721C48.9357 20.2817 48.3021 21.1709 48.0023 22.1522C48.5956 22.6486 49.4579 23.5388 49.8581 24.8187C49.9296 25.047 49.9722 25.2996 50.0022 25.5394L51.5337 24.008C51.6334 23.515 51.6399 22.9728 51.4796 22.4585C50.9849 20.8747 49.5157 19.9721 49.5157 19.9721ZM55.8758 21.8279C55.6804 21.8225 55.4767 21.8474 55.2812 21.8819L53.6056 23.5756C53.8547 23.6125 54.0829 23.6669 54.3083 23.7557C55.1512 24.0867 56.1437 24.8399 56.7947 25.5214C57.8745 25.2591 58.8728 24.5655 59.209 23.9359C59.209 23.9353 58.1532 22.3342 56.4523 21.918C56.267 21.8649 56.0712 21.8334 55.8758 21.8279ZM46.7952 22.6927C46.2007 23.0098 45.5729 23.9347 45.2817 24.9449C45.8738 25.4453 46.7071 26.3336 47.1015 27.5934C47.1735 27.8217 47.215 28.0556 47.2456 28.296L48.8311 26.7105C48.9314 26.2182 48.9193 25.6934 48.759 25.1791C48.2643 23.5953 46.7952 22.6927 46.7952 22.6927ZM53.1732 24.6746C52.9242 24.6643 52.667 24.693 52.4165 24.7467L50.885 26.2781C51.1341 26.315 51.3803 26.3695 51.6057 26.4583C52.4809 26.8019 53.4975 27.5955 54.1462 28.296C55.1453 28.0014 56.048 27.3712 56.3623 26.7826C56.3628 26.782 55.2557 25.3538 53.8939 24.8187C53.6682 24.7299 53.4223 24.685 53.1732 24.6746ZM44.0385 25.4493C43.4389 25.7693 42.7942 26.6984 42.5071 27.7195C43.0986 28.2217 43.9342 29.1134 44.3268 30.368C44.3983 30.5963 44.441 30.8308 44.4709 31.0707L46.0745 29.4672C46.1754 28.9736 46.1638 28.4506 46.0024 27.9357C45.5072 26.3513 44.0385 25.4493 44.0385 25.4493ZM50.0923 27.3952C49.966 27.4068 49.8392 27.4404 49.7139 27.4672L48.1284 29.0347C48.3781 29.0716 48.6237 29.1261 48.8491 29.2149C49.9463 29.6456 50.8561 30.4875 51.3715 31.0346C52.4012 30.7504 53.338 30.1074 53.6597 29.5032C53.6608 29.5032 52.5351 28.0743 51.1733 27.5393C50.8347 27.4061 50.4711 27.3601 50.0923 27.3952ZM41.2639 28.224C40.3991 28.6852 39.4148 30.4221 39.5883 31.8634C39.8251 33.334 40.6446 34.062 41.2819 34.2417L35.4083 40.1333C35.1829 40.3593 35.1829 40.7181 35.4083 40.9441C35.5208 41.0559 35.6751 41.1062 35.8227 41.1062C35.9697 41.1062 36.1067 41.0565 36.2191 40.9441L42.1287 35.0525C42.3269 35.6965 43.0481 36.5236 44.489 36.71C45.9303 36.8824 47.6672 35.8993 48.1284 35.0344C48.1284 35.0339 47.0039 33.6056 45.6421 33.0706C45.1906 32.893 44.6663 32.8924 44.1647 32.9985L42.1467 35.0164V34.2057H41.336L43.2818 32.2418C43.3821 31.7489 43.3886 31.2252 43.2278 30.7103C42.7325 29.1266 41.2639 28.224 41.2639 28.224ZM47.3357 30.1518C47.2095 30.1634 47.0826 30.1974 46.9573 30.2239L45.3538 31.8274C45.6029 31.8643 45.831 31.9188 46.0565 32.0076C46.7293 32.2716 47.8559 33.039 48.5789 33.8093C49.6218 33.5308 50.5773 32.8709 50.9031 32.2598C50.9031 32.2598 49.7785 30.831 48.4167 30.2959C48.0781 30.1623 47.7141 30.1169 47.3357 30.1518Z" fill="#27104E"/>
<path d="M21.8501 32.3652V41.1444" stroke="#27104E" stroke-width="2.8" stroke-linecap="round" stroke-linejoin="round"/>
<path d="M18.5892 16.0611V14.8069C18.2255 14.8069 17.8796 14.9648 17.6416 15.2396L18.5892 16.0611ZM25.1109 16.0611L26.0585 15.2396C25.8205 14.9648 25.4746 14.8069 25.1109 14.8069V16.0611ZM10.8108 26.951L19.5369 16.8825L17.6416 15.2396L8.91528 25.3083L10.8108 26.951ZM12.1377 29.8569C10.6331 29.8569 9.82538 28.088 10.8108 26.951L8.91528 25.3083C6.52213 28.0697 8.4836 32.3652 12.1377 32.3652V29.8569ZM31.5623 29.8569H12.1377V32.3652H31.5623V29.8569ZM32.8892 26.951C33.8748 28.088 33.0671 29.8569 31.5623 29.8569V32.3652C35.2165 32.3652 37.178 28.0697 34.7848 25.3083L32.8892 26.951ZM24.1632 16.8825L32.8892 26.951L34.7848 25.3083L26.0585 15.2396L24.1632 16.8825ZM25.1109 14.8069H18.5892V17.3152H25.1109V14.8069Z" fill="#27104E"/>
<path d="M12.6775 11.0172L20.0006 3.02824C20.9949 1.94371 22.7045 1.94371 23.6988 3.02824L31.0219 11.0172C32.7915 12.9478 31.422 16.0611 28.803 16.0611H14.8963C12.2773 16.0611 10.9077 12.9478 12.6775 11.0172Z" stroke="#27104E" stroke-width="2.8" stroke-linecap="round" stroke-linejoin="round"/>
</svg>
