<svg width="41" height="41" viewBox="0 0 41 41" fill="none" xmlns="http://www.w3.org/2000/svg">
<g filter="url(#filter0_d_978_3338)">
<path d="M9.8665 22.2045L19.8287 31.5629C20.1531 31.8676 20.3153 32.02 20.5133 32.02C20.7113 32.02 20.8736 31.8677 21.198 31.5629L21.198 31.5629L31.1602 22.2045C33.919 19.6129 34.254 15.3481 31.9337 12.3575L31.4974 11.7952C28.7217 8.21763 23.1501 8.81761 21.1997 12.9042C20.9242 13.4814 20.1025 13.4814 19.827 12.9042C17.8766 8.81761 12.305 8.21763 9.52925 11.7952L9.09296 12.3575C6.77268 15.3481 7.1077 19.6129 9.8665 22.2045Z" stroke="black" stroke-width="2" shape-rendering="crispEdges"/>
</g>
<defs>
<filter id="filter0_d_978_3338" x="2.55273" y="5.43994" width="35.9219" height="32.5801" filterUnits="userSpaceOnUse" color-interpolation-filters="sRGB">
<feFlood flood-opacity="0" result="BackgroundImageFix"/>
<feColorMatrix in="SourceAlpha" type="matrix" values="0 0 0 0 0 0 0 0 0 0 0 0 0 0 0 0 0 0 127 0" result="hardAlpha"/>
<feOffset dy="1"/>
<feGaussianBlur stdDeviation="2"/>
<feComposite in2="hardAlpha" operator="out"/>
<feColorMatrix type="matrix" values="0 0 0 0 0 0 0 0 0 0 0 0 0 0 0 0 0 0 0.25 0"/>
<feBlend mode="normal" in2="BackgroundImageFix" result="effect1_dropShadow_978_3338"/>
<feBlend mode="normal" in="SourceGraphic" in2="effect1_dropShadow_978_3338" result="shape"/>
</filter>
</defs>
</svg>
