<svg width="22" height="22" viewBox="0 0 22 22" fill="none" xmlns="http://www.w3.org/2000/svg">
<path d="M4.97357 12.1032L10.7685 17.4192L10.7685 17.4192C10.9016 17.5412 10.9681 17.6023 11.0394 17.635C11.172 17.696 11.3246 17.696 11.4572 17.635C11.5285 17.6023 11.595 17.5412 11.728 17.4192L17.523 12.1032C19.1983 10.5664 19.4006 7.99603 17.9864 6.21605L17.7803 5.95668C16.1149 3.86051 12.8328 4.21765 11.6573 6.62297C11.4909 6.9634 11.0057 6.9634 10.8393 6.62297C9.66372 4.21765 6.38169 3.86051 4.71626 5.95668L4.51019 6.21605C3.09597 7.99603 3.29829 10.5664 4.97357 12.1032Z" stroke="white" stroke-width="1.2"/>
</svg>
