<svg width="24" height="22" viewBox="0 0 24 22" fill="none" xmlns="http://www.w3.org/2000/svg">
<path d="M6.22992 15.7691C4.69526 15.7691 3.45117 14.6286 3.45117 13.2219V6.56C3.45117 5.15323 4.69526 4.01282 6.22992 4.01282H17.7724C19.3071 4.01282 20.5512 5.15323 20.5512 6.56V13.2219C20.5512 14.6286 19.3071 15.7691 17.7724 15.7691H12.8668L8.58004 18.7086C8.10737 19.0327 7.4376 18.9442 7.08407 18.5109C6.94586 18.3415 6.87117 18.1357 6.87117 17.9243L6.8705 15.7691H6.22992ZM12.4402 14.5934H17.7724C18.5988 14.5934 19.2687 13.9794 19.2687 13.2219V6.56C19.2687 5.80251 18.5988 5.18844 17.7724 5.18844H6.22992C5.40356 5.18844 4.73367 5.80251 4.73367 6.56V13.2219C4.73367 13.9794 5.40356 14.5934 6.22992 14.5934H8.15263L8.15281 15.1811L8.15354 17.5329L12.4402 14.5934Z" fill="white"/>
</svg>
