<svg width="45" height="48" viewBox="0 0 45 48" fill="none" xmlns="http://www.w3.org/2000/svg">
<path fill-rule="evenodd" clip-rule="evenodd" d="M11.0557 0.565063C11.4526 0.565063 11.7743 0.876883 11.7743 1.26153V2.19014C11.7743 2.57478 11.4526 2.8866 11.0557 2.8866C10.6588 2.8866 10.3371 2.57478 10.3371 2.19014V1.26153C10.3371 0.876883 10.6588 0.565063 11.0557 0.565063ZM3.77228 3.48891C4.05292 3.21693 4.50794 3.21693 4.78857 3.48891L5.16498 3.85371C5.44562 4.12569 5.44562 4.56666 5.16498 4.83865C4.88433 5.11064 4.42933 5.11064 4.14869 4.83865L3.77228 4.47386C3.49164 4.20187 3.49164 3.76089 3.77228 3.48891ZM18.3389 3.48915C18.6195 3.76113 18.6195 4.20212 18.3389 4.4741L17.9625 4.83889C17.6819 5.11088 17.2268 5.11088 16.9462 4.83889C16.6655 4.5669 16.6655 4.12593 16.9462 3.85395L17.3226 3.48915C17.6033 3.21717 18.0582 3.21717 18.3389 3.48915ZM11.0557 5.67245C8.2775 5.67245 6.02532 7.85516 6.02532 10.5477C6.02532 13.2402 8.2775 15.4229 11.0557 15.4229C13.8339 15.4229 16.0861 13.2402 16.0861 10.5477C16.0861 7.85516 13.8339 5.67245 11.0557 5.67245ZM4.58806 10.5477C4.58806 7.08588 7.48373 4.27953 11.0557 4.27953C14.6277 4.27953 17.5234 7.08588 17.5234 10.5477C17.5234 14.0095 14.6277 16.8158 11.0557 16.8158C7.48373 16.8158 4.58806 14.0095 4.58806 10.5477ZM0.755371 10.5477C0.755371 10.163 1.07712 9.85122 1.474 9.85122H2.43217C2.82906 9.85122 3.1508 10.163 3.1508 10.5477C3.1508 10.9323 2.82906 11.2441 2.43217 11.2441H1.474C1.07712 11.2441 0.755371 10.9323 0.755371 10.5477ZM18.9606 10.5477C18.9606 10.163 19.2824 9.85122 19.6793 9.85122H20.6374C21.0343 9.85122 21.3561 10.163 21.3561 10.5477C21.3561 10.9323 21.0343 11.2441 20.6374 11.2441H19.6793C19.2824 11.2441 18.9606 10.9323 18.9606 10.5477ZM16.9462 16.2564C17.2268 15.9844 17.6819 15.9844 17.9625 16.2564L18.3389 16.6213C18.6195 16.8933 18.6195 17.3342 18.3389 17.6062C18.0582 17.8782 17.6033 17.8782 17.3226 17.6062L16.9462 17.2414C16.6655 16.9694 16.6655 16.5284 16.9462 16.2564ZM5.16498 16.2567C5.44562 16.5287 5.44562 16.9697 5.16498 17.2417L4.78857 17.6065C4.50794 17.8784 4.05292 17.8784 3.77228 17.6065C3.49164 17.3345 3.49164 16.8935 3.77228 16.6215L4.14869 16.2567C4.42933 15.9847 4.88433 15.9847 5.16498 16.2567ZM11.0557 18.2088C11.4526 18.2088 11.7743 18.5206 11.7743 18.9052V19.8338C11.7743 20.2185 11.4526 20.5303 11.0557 20.5303C10.6588 20.5303 10.3371 20.2185 10.3371 19.8338V18.9052C10.3371 18.5206 10.6588 18.2088 11.0557 18.2088Z" fill="#27104E"/>
<path fill-rule="evenodd" clip-rule="evenodd" d="M33.3342 14.2162L32.5757 14.6308V15.5714L33.0059 15.8065L33.8662 15.3363V14.507H34.7266V15.3362L35.485 15.7508L35.0548 16.4563L34.2964 16.0417L33.4361 16.512V16.9823L34.2964 17.4526L35.0548 17.038L35.485 17.7434L34.7266 18.158V18.9872H33.8662V18.158L33.0059 17.6877L32.5757 17.9229V18.8635L33.3342 19.2781L32.904 19.9835L32.1456 19.5689L31.3871 19.9836L30.957 19.2781L31.7154 18.8635V17.9229L31.2853 17.6877L30.4249 18.158V18.9872H29.5646V18.158L28.8062 17.7435L29.2363 17.038L29.9948 17.4526L30.8551 16.9823V16.512L29.9948 16.0417L29.2363 16.4563L28.8062 15.7508L29.5646 15.3363V14.507H30.4249V15.3362L31.2853 15.8065L31.7154 15.5714V14.6308L30.957 14.2162L31.3871 13.5107L32.1456 13.9253L32.904 13.5107L33.3342 14.2162ZM32.5757 16.7471C32.5757 16.9721 32.3831 17.1544 32.1456 17.1544C31.908 17.1544 31.7154 16.9721 31.7154 16.7471C31.7154 16.5222 31.908 16.3399 32.1456 16.3399C32.3831 16.3399 32.5757 16.5222 32.5757 16.7471Z" fill="#27104E"/>
<path fill-rule="evenodd" clip-rule="evenodd" d="M43.5454 11.3448L43.0904 11.5935V12.1579L43.3485 12.299L43.8647 12.0168V11.5193H44.3809V12.0168L44.8359 12.2656L44.5778 12.6888L44.1228 12.4401L43.6066 12.7223V13.0044L44.1228 13.2866L44.5778 13.0379L44.8359 13.4611L44.3809 13.7099V14.2074H43.8647V13.7099L43.3485 13.4277L43.0904 13.5688V14.1331L43.5454 14.3819L43.2873 14.8052L42.8323 14.5564L42.3772 14.8052L42.1191 14.3819L42.5742 14.1332V13.5688L42.3161 13.4277L41.7999 13.7099V14.2074H41.2837V13.7099L40.8286 13.4611L41.0867 13.0379L41.5418 13.2866L42.058 13.0044V12.7223L41.5418 12.4401L41.0867 12.6888L40.8286 12.2656L41.2837 12.0168V11.5193H41.7999V12.0168L42.3161 12.299L42.5742 12.1579V11.5935L42.1191 11.3448L42.3772 10.9215L42.8323 11.1703L43.2873 10.9215L43.5454 11.3448ZM43.0904 12.8634C43.0904 12.9983 42.9748 13.1077 42.8323 13.1077C42.6897 13.1077 42.5742 12.9983 42.5742 12.8634C42.5742 12.7284 42.6897 12.619 42.8323 12.619C42.9748 12.619 43.0904 12.7284 43.0904 12.8634Z" fill="#27104E"/>
<path fill-rule="evenodd" clip-rule="evenodd" d="M32.8594 6.16668L32.4043 6.41544V6.9798L32.6624 7.12089L33.1786 6.83871V6.34119H33.6948V6.83871L34.1499 7.08747L33.8918 7.51074L33.4367 7.26198L32.9205 7.54416V7.82634L33.4367 8.10852L33.8918 7.85976L34.1499 8.28301L33.6948 8.53179V9.02931H33.1786V8.53179L32.6624 8.24961L32.4043 8.39069V8.95504L32.8594 9.20382L32.6013 9.62708L32.1462 9.37833L31.6912 9.6271L31.4331 9.20382L31.8881 8.95507V8.39069L31.63 8.24961L31.1138 8.53179V9.02931H30.5976V8.53179L30.1426 8.28304L30.4007 7.85976L30.8557 8.10852L31.3719 7.82634V7.54416L30.8557 7.26198L30.4007 7.51074L30.1426 7.08747L30.5976 6.83871V6.34119H31.1138V6.83871L31.63 7.12089L31.8881 6.9798V6.41544L31.4331 6.16668L31.6912 5.74341L32.1462 5.99217L32.6013 5.74341L32.8594 6.16668ZM32.4043 7.68525C32.4043 7.82021 32.2888 7.92962 32.1462 7.92962C32.0037 7.92962 31.8881 7.82021 31.8881 7.68525C31.8881 7.55028 32.0037 7.44088 32.1462 7.44088C32.2888 7.44088 32.4043 7.55028 32.4043 7.68525Z" fill="#27104E"/>
<path fill-rule="evenodd" clip-rule="evenodd" d="M41.7782 2.42385L41.1714 2.75554V3.50802L41.5156 3.69614L42.2038 3.31991V2.65654H42.8921V3.3199L43.4988 3.65158L43.1547 4.21594L42.548 3.88426L41.8597 4.2605V4.63674L42.548 5.01298L43.1547 4.6813L43.4988 5.24564L42.8921 5.57734V6.2407H42.2038V5.57734L41.5156 5.2011L41.1714 5.3892V6.14168L41.7782 6.47338L41.4341 7.03772L40.8273 6.70605L40.2206 7.03775L39.8764 6.47338L40.4832 6.14171V5.3892L40.139 5.2011L39.4508 5.57734V6.2407H38.7625V5.57734L38.1558 5.24567L38.4999 4.6813L39.1066 5.01298L39.7949 4.63674V4.2605L39.1067 3.88426L38.4999 4.21594L38.1558 3.65158L38.7625 3.31991V2.65654H39.4508V3.3199L40.139 3.69614L40.4832 3.50802V2.75554L39.8764 2.42386L40.2206 1.8595L40.8273 2.19118L41.4341 1.8595L41.7782 2.42385ZM41.1714 4.44862C41.1714 4.62857 41.0174 4.77445 40.8273 4.77445C40.6372 4.77445 40.4832 4.62857 40.4832 4.44862C40.4832 4.26867 40.6372 4.12279 40.8273 4.12279C41.0174 4.12279 41.1714 4.26867 41.1714 4.44862Z" fill="#27104E"/>
<path d="M16.4497 28.1826H18.8986M21.3475 25.6397V25.2159C21.3475 23.5774 22.718 22.2491 24.4087 22.2491C26.0993 22.2491 27.4698 23.5774 27.4698 25.2159C27.4698 26.8543 26.0993 28.1826 24.4087 28.1826H22.572" stroke="#27104E" stroke-linecap="round"/>
<path d="M17.6743 35.3026H18.8988M31.1433 38.8627V39.456C31.1433 41.7499 33.062 43.6094 35.4289 43.6094C37.7958 43.6094 39.7145 41.7499 39.7145 39.456C39.7145 37.1621 37.7958 35.3026 35.4289 35.3026H23.7966" stroke="#27104E" stroke-linecap="round"/>
<path d="M15.2251 31.7426H22.5718M31.143 28.1825V27.5892C31.143 25.2953 33.0617 23.4358 35.4286 23.4358C37.7955 23.4358 39.7142 25.2953 39.7142 27.5892C39.7142 29.883 37.7955 31.7426 35.4286 31.7426H27.7757" stroke="#27104E" stroke-linecap="round"/>
</svg>
