<svg width="71" height="50" viewBox="0 0 71 50" fill="none" xmlns="http://www.w3.org/2000/svg">
<path d="M45.5428 32.9788C43.9765 30.4677 41.7892 28.3692 39.2174 26.9101C36.5643 25.4047 33.5402 24.6092 30.4722 24.6092C30.2728 24.6092 30.0735 24.613 29.8746 24.6196C29.2359 23.0271 28.2651 21.5547 27.0448 20.3371C24.644 17.9425 21.4542 16.6237 18.063 16.6237C14.6723 16.6237 11.4822 17.9424 9.08036 20.3371C6.67046 22.7408 5.34326 25.9391 5.34326 29.3425C5.34326 32.746 6.67046 35.9442 9.08044 38.3479C11.4822 40.7426 14.6722 42.0612 18.063 42.0612C20.0279 42.0612 21.979 41.602 23.7274 40.7321C25.8563 41.6054 28.1516 42.0614 30.4722 42.0614C33.5402 42.0614 36.5642 41.2657 39.2174 39.7604C41.7892 38.3012 43.9765 36.2027 45.5428 33.6917C45.6788 33.4736 45.6788 33.197 45.5428 32.9788ZM28.4572 24.7261C27.033 24.8885 25.6342 25.2202 24.295 25.7165C24.7795 24.2739 25.5505 22.9441 26.5693 21.7974C27.3434 22.6712 27.9836 23.6647 28.4572 24.7261ZM18.7368 17.9914C21.2983 18.1402 23.7001 19.1353 25.6163 20.8423C24.1909 22.4266 23.1914 24.3289 22.7006 26.3982C22.3711 26.5586 22.0463 26.729 21.727 26.9101C20.8269 27.4208 19.9754 28.0113 19.1797 28.6687H18.7368V17.9914ZM17.3893 17.9913V28.6687H13.7511C13.5998 25.7492 12.4666 23.013 10.5103 20.8412C12.427 19.1349 14.8284 18.1401 17.3893 17.9913ZM9.55603 21.796C11.2597 23.7111 12.2526 26.1094 12.4011 28.6687H6.711C6.85945 26.1093 7.8525 23.7111 9.55603 21.796ZM6.711 30.0161H12.4011C12.2527 32.5755 11.2597 34.9738 9.55603 36.889C7.85243 34.9738 6.85945 32.5754 6.711 30.0161ZM17.3893 40.6935C14.8284 40.5447 12.4269 39.55 10.5103 37.8437C12.4666 35.672 13.5998 32.9357 13.7511 30.0161H17.3893V30.3666C16.6495 31.173 15.9827 32.0473 15.4017 32.9788C15.2656 33.197 15.2656 33.4737 15.4017 33.6919C15.9827 34.6233 16.6495 35.4977 17.3893 36.304V40.6935ZM16.7739 33.3353C17.4399 32.3268 18.2171 31.3962 19.0841 30.5592V36.1116C18.2171 35.2744 17.4398 34.3438 16.7739 33.3353ZM18.7368 40.6935V37.6237C19.6561 38.4351 20.6577 39.1538 21.727 39.7606C21.8541 39.8327 21.9828 39.9017 22.1117 39.9706C21.0341 40.3798 19.8929 40.6248 18.7368 40.6935ZM40.513 37.2802C39.8922 37.7617 39.2373 38.2 38.5525 38.5887C36.1017 39.9793 33.3076 40.7142 30.4722 40.7142C27.6369 40.7142 24.8428 39.9793 22.3919 38.5887C21.7071 38.2001 21.0522 37.7618 20.4315 37.2802V29.3907C21.0521 28.909 21.707 28.4707 22.3919 28.0821C24.8428 26.6917 27.6369 25.9566 30.4722 25.9566C33.3075 25.9566 36.1017 26.6916 38.5525 28.0821C39.2375 28.4707 39.8923 28.9091 40.513 29.3907V37.2802ZM41.8603 36.1114V30.5591C42.7273 31.3962 43.5045 32.3267 44.1706 33.3352C43.5046 34.3438 42.7274 35.2744 41.8603 36.1114Z" fill="#27104E"/>
<path d="M42.3006 32.5904H40.6773V31.6734C40.6773 31.3093 40.3008 31.0142 39.8364 31.0142C39.372 31.0142 38.9955 31.3093 38.9955 31.6734V32.5904H36.6127V31.6734C36.6127 31.3093 36.2362 31.0142 35.7718 31.0142C35.3074 31.0142 34.9309 31.3093 34.9309 31.6734V32.5904H32.5483V31.6734C32.5483 31.3093 32.1718 31.0142 31.7074 31.0142C31.243 31.0142 30.8665 31.3093 30.8665 31.6734V32.5904H28.4839V31.6734C28.4839 31.3093 28.1074 31.0142 27.643 31.0142C27.1786 31.0142 26.8021 31.3093 26.8021 31.6734V32.5904H24.4193V31.6734C24.4193 31.3093 24.0428 31.0142 23.5784 31.0142C23.114 31.0142 22.7375 31.3093 22.7375 31.6734V32.5904H21.1143C20.6499 32.5904 20.2734 32.8856 20.2734 33.2497C20.2734 33.6138 20.6499 33.909 21.1143 33.909H22.7376V34.8259C22.7376 35.19 23.1141 35.4852 23.5785 35.4852C24.0429 35.4852 24.4194 35.19 24.4194 34.8259V33.909H26.8022V34.8259C26.8022 35.19 27.1787 35.4852 27.6431 35.4852C28.1075 35.4852 28.484 35.19 28.484 34.8259V33.909H30.8666V34.8259C30.8666 35.19 31.2431 35.4852 31.7075 35.4852C32.1719 35.4852 32.5484 35.19 32.5484 34.8259V33.909H34.931V34.8259C34.931 35.19 35.3075 35.4852 35.7719 35.4852C36.2363 35.4852 36.6128 35.19 36.6128 34.8259V33.909H38.9955V34.8259C38.9955 35.19 39.372 35.4852 39.8364 35.4852C40.3008 35.4852 40.6773 35.19 40.6773 34.8259V33.909H42.3006C42.765 33.909 43.1415 33.6138 43.1415 33.2497C43.1414 32.8856 42.7651 32.5904 42.3006 32.5904Z" fill="#27104E"/>
<path d="M64.5121 5.41345H40.6315C39.9743 5.41345 39.4414 5.94625 39.4414 6.60353V21.9854C39.4414 22.6426 39.9742 23.1755 40.6315 23.1755H51.4287V39.5566H50.547C49.8898 39.5566 49.3569 40.0894 49.3569 40.7467C49.3569 41.4039 49.8897 41.9368 50.547 41.9368H54.6907C55.3479 41.9368 55.8807 41.404 55.8807 40.7467C55.8807 40.0895 55.3479 39.5566 54.6907 39.5566H53.8089V23.1755H64.5121C65.1693 23.1755 65.7021 22.6427 65.7021 21.9854V6.60353C65.7021 5.94625 65.1693 5.41345 64.5121 5.41345ZM53.6646 20.7953H51.5732L51.3857 19.7655H53.8522L53.6646 20.7953ZM54.2857 17.3854H50.9522L50.68 15.8915H54.5578L54.2857 17.3854ZM63.322 20.7953H56.0838L56.9803 15.8729C57.5409 15.7766 57.9677 15.2894 57.9677 14.7014C57.9677 14.0442 57.4349 13.5113 56.7776 13.5113H48.46C47.8028 13.5113 47.2699 14.0441 47.2699 14.7014C47.2699 15.2894 47.6968 15.7766 48.2573 15.8729L49.1538 20.7953H41.8216V7.79353H63.322V20.7953Z" fill="#27104E"/>
</svg>
