<svg width="55" height="43" viewBox="0 0 55 43" fill="none" xmlns="http://www.w3.org/2000/svg">
<path d="M3.89909 27.1409V41.8435H10.5891M50.8072 27.1409V41.8435H44.0394M50.8072 27.1409H53.5299V22.1623H42.4835M50.8072 27.1409H42.4835M10.5891 41.8435V36.787H12.3783M10.5891 41.8435H44.0394M44.0394 41.8435V36.787H42.4835M12.3783 36.787H16.8902M12.3783 36.787V27.1409M16.8902 17.9615V36.787M16.8902 17.9615H15.8789M16.8902 17.9615H27.3143M16.8902 36.787H37.6605M37.6605 36.787V17.9615M37.6605 36.787H42.4835M37.6605 17.9615H27.3143M37.6605 17.9615H39.2941M42.4835 36.787V27.1409M42.4835 7.45974L48.1623 17.9615H39.2941M42.4835 7.45974H35.5601M42.4835 7.45974C42.4835 7.45974 43.5201 7.29561 44.0394 6.9152C44.4567 6.60947 44.7966 6.45636 45.1284 6.05949C45.5576 5.54625 45.8015 5.22508 45.9841 4.58146C46.1086 4.14308 46.2291 3.86143 46.1397 3.41459C46.0198 2.81509 45.8886 2.34457 45.5174 1.85876C45.1253 1.34554 44.6465 1.14549 44.0394 0.925273C43.4682 0.71811 43.0814 0.817205 42.4835 0.925273C41.2064 1.15611 39.6831 2.71447 39.6831 2.71447H14.9454C14.9454 2.71447 13.7786 1.62539 13.1562 1.23644C12.5339 0.84749 11.9116 0.691895 11.1337 0.691895C10.5322 0.691895 9.44914 1.43905 9.1111 1.93655C8.64135 2.62791 8.48709 3.35665 8.48877 4.1925C8.49093 5.26614 9.17295 5.8034 9.96681 6.52624C10.7135 7.20614 12.3783 7.45974 12.3783 7.45974M12.3783 7.45974L6.62179 17.9615H15.8789M12.3783 7.45974H19.224M15.8789 17.9615H12.3783V22.1623M15.8789 17.9615L19.224 7.45974M15.8789 17.9615H27.3143M19.224 7.45974H27.3143M27.3143 7.45974V17.9615M27.3143 7.45974H35.5601M27.3143 17.9615H39.2941M27.3143 17.9615V20.6625M39.2941 17.9615H42.4835V22.1623M39.2941 17.9615L35.5601 7.45974M12.3783 27.1409H0.865234V22.1623H12.3783M12.3783 27.1409V22.1623M42.4835 27.1409V22.1623" stroke="#27104E"/>
<path d="M27.4937 32.7659V37.0021" stroke="#27104E"/>
<path d="M33.2711 26.8297C33.2711 30.0652 30.5808 32.7086 27.2366 32.7086C23.8924 32.7086 21.2021 30.0652 21.2021 26.8297C21.2021 23.5942 23.8924 20.9508 27.2366 20.9508C30.5808 20.9508 33.2711 23.5942 33.2711 26.8297Z" stroke="#27104E"/>
<path d="M21.4395 27.9247C22.6323 29.2212 25.1503 30.7039 27.0795 27.2188C29.0087 23.7338 31.5893 25.7667 32.9377 27.2188" stroke="#27104E"/>
</svg>
