<svg width="94" height="44" viewBox="0 0 94 44" fill="none" xmlns="http://www.w3.org/2000/svg">
<circle cx="14.2165" cy="17.7174" r="2.12759" fill="#27104E" stroke="#27104E"/>
<path d="M10.2791 21.7188C8.56524 23.5788 4.32565 27.3852 1.07852 27.7308" stroke="#27104E" stroke-width="2"/>
<path d="M10.0945 13.7584C8.36692 12.2451 5.80375 7.93867 9.37163 2.82021" stroke="#27104E" stroke-width="2"/>
<path d="M18.2773 21.7773C22.0993 25.5197 29.0266 34.7242 26.1601 41.6037" stroke="#27104E" stroke-width="2"/>
<path d="M18.2774 14.1413C20.7186 11.0637 26.3137 5.99536 29.164 10.3427" stroke="#27104E" stroke-width="2"/>
<line x1="14.25" y1="22.7324" x2="14.25" y2="28.9431" stroke="#27104E" stroke-width="1.5"/>
<line x1="14.25" y1="6.9668" x2="14.25" y2="13.1775" stroke="#27104E" stroke-width="1.5"/>
<line x1="25.4434" y1="17.7502" x2="19.2327" y2="17.7502" stroke="#27104E" stroke-width="1.5"/>
<line x1="9.2002" y1="17.7502" x2="2.98954" y2="17.7502" stroke="#27104E" stroke-width="1.5"/>
<path d="M48.4379 18.8527C47.1365 18.8527 45.9739 18.5861 44.9499 18.0527C43.9472 17.5194 43.1579 16.7834 42.5819 15.8447C42.0272 14.8847 41.7499 13.8074 41.7499 12.6127C41.7499 11.4181 42.0272 10.3514 42.5819 9.41272C43.1579 8.45272 43.9472 7.70605 44.9499 7.17272C45.9739 6.63938 47.1365 6.37272 48.4379 6.37272H54.3579V8.74072H48.4379C47.2432 8.74072 46.2619 9.10338 45.4939 9.82872C44.7472 10.5541 44.3739 11.4821 44.3739 12.6127C44.3739 13.7434 44.7472 14.6714 45.4939 15.3967C46.2619 16.1221 47.2432 16.4847 48.4379 16.4847C49.6325 16.4847 50.6032 16.1221 51.3499 15.3967C52.1179 14.6714 52.5019 13.7434 52.5019 12.6127C52.5019 11.7167 52.2672 10.9381 51.7979 10.2767H54.4859C54.6779 10.5541 54.8272 10.9061 54.9339 11.3327C55.0619 11.7594 55.1259 12.1861 55.1259 12.6127C55.1259 13.8074 54.8379 14.8847 54.2619 15.8447C53.7072 16.7834 52.9179 17.5194 51.8939 18.0527C50.8912 18.5861 49.7392 18.8527 48.4379 18.8527ZM51.1259 32.8367V24.1967H45.8779V32.8367H43.2539V24.1967H35.7659V21.8287H61.1099V24.1967H53.7499V32.8367H51.1259ZM88.0231 14.0207H84.3751V24.1967H81.8151V4.35672H84.3751V11.6527H88.0231V4.16472H90.5831V17.2847C90.5831 18.7141 90.7858 19.7807 91.1911 20.4847C91.5964 21.1887 92.2364 21.6367 93.1111 21.8287V24.1967C91.4898 24.0901 90.2311 23.5034 89.3351 22.4367C88.4604 21.3701 88.0231 19.8234 88.0231 17.7967V14.0207ZM61.0471 24.1967V21.8287H71.9911C72.9298 21.8287 73.6978 21.5087 74.2951 20.8687C74.9138 20.2074 75.2231 19.3754 75.2231 18.3727C75.2231 17.3701 74.9138 16.5487 74.2951 15.9087C73.6978 15.2474 72.9298 14.9167 71.9911 14.9167C71.0524 14.9167 70.2844 15.2474 69.6871 15.9087C69.0898 16.5487 68.7911 17.3701 68.7911 18.3727C68.7911 18.7567 68.8338 19.1087 68.9191 19.4287C69.0044 19.7487 69.0578 19.9514 69.0791 20.0367H66.5191C66.2844 19.3754 66.1671 18.8207 66.1671 18.3727C66.1671 17.0287 66.5618 15.8767 67.3511 14.9167H64.2151V12.5487H70.7431V7.78072H73.3671V12.5487H79.7991V14.9167H76.6631C77.4524 15.8767 77.8471 17.0287 77.8471 18.3727C77.8471 19.4821 77.5911 20.4847 77.0791 21.3807C76.5884 22.2554 75.8951 22.9487 74.9991 23.4607C74.1244 23.9514 73.1218 24.1967 71.9911 24.1967H61.0471ZM83.4791 38.6607C82.2844 38.6607 81.2071 38.4047 80.2471 37.8927C79.2871 37.4021 78.5404 36.7087 78.0071 35.8127C77.4738 34.9167 77.2071 33.9034 77.2071 32.7727C77.2071 31.6421 77.4738 30.6287 78.0071 29.7327C78.5404 28.8367 79.2871 28.1434 80.2471 27.6527C81.2071 27.1407 82.2844 26.8847 83.4791 26.8847H89.1431V29.2527H83.4791C82.4124 29.2527 81.5378 29.5834 80.8551 30.2447C80.1724 30.8847 79.8311 31.7274 79.8311 32.7727C79.8311 33.7967 80.1724 34.6394 80.8551 35.3007C81.5378 35.9621 82.4124 36.2927 83.4791 36.2927C84.5458 36.2927 85.4204 35.9621 86.1031 35.3007C86.8071 34.6394 87.1591 33.7967 87.1591 32.7727C87.1591 32.4314 87.1164 32.1007 87.0311 31.7807C86.9458 31.4607 86.8391 31.1941 86.7111 30.9807H89.2711C89.6124 31.5567 89.7831 32.1541 89.7831 32.7727C89.7831 33.9034 89.5164 34.9167 88.9831 35.8127C88.4498 36.7087 87.7031 37.4021 86.7431 37.8927C85.7831 38.4047 84.6951 38.6607 83.4791 38.6607Z" fill="#27104E"/>
</svg>
